<svg xmlns="http://www.w3.org/2000/svg" viewBox="0 0 299.16 88.64"><defs><style>.cls-1{fill:#fff;}</style></defs><title>Asset 1</title><g id="Layer_2" data-name="Layer 2"><g id="Layer_1-2" data-name="Layer 1"><path class="cls-1" d="M280.13,88.64H0V0H299.16V69.62ZM4.89,83.75H278.11l16.16-16.16V4.89H4.89Z"/><path class="cls-1" d="M38.68,58.35a19.32,19.32,0,0,0,13,5.42c5.42,0,9.85-3.24,9.85-8.59,0-12.46-24.71-9.29-24.71-24.64,0-7.11,6.27-13.3,15.42-13.3,8.59,0,13.23,4.78,13.23,4.78L63,26.11A16.85,16.85,0,0,0,52.2,21.88c-6.34,0-10.42,4.16-10.42,8.52,0,11.76,24.71,8.38,24.71,24.64,0,7.39-5.7,13.38-15,13.38a21.8,21.8,0,0,1-15.7-6.34Z"/><path class="cls-1" d="M95.77,18.08h4.93V50.25c0,8.52,5.49,13.66,14,13.66s14.07-5.14,14.07-13.8v-32h4.86V50.32c0,11-7.67,18.1-18.86,18.1s-19-7.12-19-18.1Z"/><path class="cls-1" d="M180.5,22.45H162.69V18.08H203.1v4.37H185.36V67.57H180.5Z"/><path class="cls-1" d="M84.13,43.25a3,3,0,1,0-3,3Z"/><path class="cls-1" d="M24.16,43.25a3,3,0,1,0-3,3Z"/><path class="cls-1" d="M153.58,43.25a3,3,0,1,0-3,3Z"/><path class="cls-1" d="M215.21,46.25a3,3,0,1,1,3-3"/><path class="cls-1" d="M275.44,46.25a3,3,0,1,1,3-3Z"/><polygon class="cls-1" points="239.51 63.21 239.51 18.08 234.66 18.08 234.66 67.57 254.07 67.57 258.44 63.21 239.51 63.21"/></g></g></svg>